<?xml version="1.0" standalone="no"?>
<!DOCTYPE svg PUBLIC "-//W3C//DTD SVG 20010904//EN"
 "http://www.w3.org/TR/2001/REC-SVG-20010904/DTD/svg10.dtd">
<svg version="1.0" xmlns="http://www.w3.org/2000/svg"
 width="556.000000pt" height="556.000000pt" viewBox="0 0 556.000000 556.000000"
 preserveAspectRatio="xMidYMid meet">
<metadata>
Created by potrace 1.14, written by Peter Selinger 2001-2017
</metadata>
<g transform="translate(0.000000,556.000000) scale(0.100000,-0.100000)"
fill="#000000" stroke="none">
<path d="M2670 5198 c-58 -44 -115 -88 -128 -99 -12 -10 -27 -19 -32 -19 -6 0
-10 -4 -10 -9 0 -5 -22 -23 -49 -40 -27 -18 -60 -42 -74 -54 -14 -12 -56 -44
-94 -72 -37 -27 -70 -52 -73 -55 -3 -3 -142 -108 -310 -234 -168 -126 -317
-239 -331 -250 -25 -21 -27 -22 -797 -21 -722 0 -770 -1 -759 -17 16 -23 87
-114 177 -228 145 -185 185 -237 210 -270 14 -18 33 -43 43 -54 58 -69 187
-240 187 -248 0 -5 -14 -21 -30 -35 -33 -28 -36 -35 -17 -55 7 -7 28 -33 47
-58 19 -25 37 -47 40 -50 3 -3 32 -39 65 -80 32 -41 61 -77 64 -80 4 -3 22
-25 41 -50 48 -62 52 -68 104 -129 25 -30 57 -71 71 -91 l25 -37 -22 -54 c-12
-30 -27 -61 -35 -70 -7 -8 -13 -21 -13 -27 0 -6 -8 -28 -19 -49 -34 -68 -76
-158 -76 -163 -1 -3 -7 -16 -14 -28 -15 -27 -17 -24 32 -50 38 -20 65 -46 182
-178 33 -37 71 -79 85 -94 50 -54 117 -128 190 -210 41 -46 86 -96 100 -111
36 -38 172 -188 193 -213 21 -24 146 -162 192 -212 17 -17 59 -65 95 -105 150
-167 170 -186 170 -161 0 12 5 22 10 22 6 0 10 6 10 13 0 8 17 49 38 93 21 43
51 107 67 142 16 34 31 62 34 62 3 -1 33 -37 66 -82 33 -44 65 -86 72 -93 7
-7 9 -15 6 -19 -4 -3 -2 -6 3 -6 6 0 32 -30 59 -68 27 -37 53 -71 58 -77 8
-10 98 -130 147 -195 25 -34 100 -131 107 -140 3 -3 11 4 19 15 8 11 23 31 34
45 10 14 32 43 49 65 85 114 241 321 248 330 5 6 29 37 53 70 25 33 50 65 55
71 6 6 21 27 35 47 14 20 28 37 31 37 3 0 23 -37 44 -82 69 -150 118 -253 122
-258 5 -5 27 19 168 175 39 42 84 92 100 110 17 18 57 63 89 99 32 37 77 87
100 111 23 24 70 76 106 116 36 40 77 85 91 100 15 16 53 58 85 95 33 36 70
78 84 93 49 53 191 210 225 248 79 89 112 121 150 143 22 13 41 25 43 26 2 1
-14 40 -36 86 -65 135 -119 254 -127 277 -3 11 -10 21 -14 21 -4 0 -7 10 -8
22 -1 14 34 66 99 147 56 69 105 128 110 129 4 2 8 8 8 13 0 5 9 20 20 32 27
29 140 167 193 236 l41 53 -32 29 c-34 30 -40 53 -19 66 6 4 25 26 42 48 16
22 33 45 37 50 8 9 34 42 130 165 15 19 66 85 113 145 47 61 91 117 98 125 7
8 34 44 62 80 27 36 52 67 55 70 3 3 19 23 35 45 17 22 34 43 40 47 5 4 8 8 5
9 -3 1 -352 2 -775 3 l-771 1 -64 51 c-99 78 -390 298 -409 309 -9 6 -23 16
-31 23 -8 7 -98 76 -200 152 -102 76 -189 143 -195 147 -5 5 -64 49 -130 98
-66 49 -128 96 -137 105 -9 8 -29 22 -45 31 l-28 17 -105 -80z"/>
</g>
</svg>
